<svg width="108" height="34" viewBox="0 0 108 34" fill="none" xmlns="http://www.w3.org/2000/svg">
<g clip-path="url(#clip0_1_511)">
<path d="M19.4303 23.0554C18.5974 24.963 15.8957 24.8706 15.1916 22.91L10.6441 10.2491C10.5084 9.87136 10.4646 9.46601 10.5164 9.06745C10.5682 8.66888 10.7141 8.28884 10.9416 7.95956C11.1691 7.63027 11.4717 7.36144 11.8235 7.17587C12.1754 6.99029 12.5662 6.89343 12.9629 6.89351V6.48438H0V6.89351C0.72268 6.89409 1.42773 7.11971 2.01971 7.53983C2.61169 7.95994 3.06202 8.55425 3.30972 9.24231L11.8844 33.1185H15.3084L19.5422 23.4325L19.6638 23.1589L19.4328 23.0554H19.4303Z" fill="white"/>
<path d="M34.5324 23.0554C33.6995 24.963 30.9977 24.8706 30.2937 22.91L25.7437 10.2491C25.6081 9.87136 25.5643 9.46601 25.616 9.06745C25.6678 8.66888 25.8137 8.28884 26.0412 7.95956C26.2688 7.63027 26.5713 7.36144 26.9231 7.17587C27.275 6.99029 27.6658 6.89343 28.0625 6.89351V6.48438H15.0996V6.89351C15.8212 6.89379 16.5254 7.11845 17.117 7.53715C17.7086 7.95585 18.1593 8.54843 18.4081 9.23492L26.984 33.1124H30.408L34.6418 23.4263L34.7634 23.1528L34.5324 23.0492V23.0554Z" fill="white"/>
<path d="M45.4534 6.47462C44.6145 6.47462 43.7838 6.30715 43.0087 5.98177C42.2336 5.65639 41.5294 5.17947 40.9361 4.57825C40.3429 3.97702 39.8724 3.26327 39.5513 2.47773C39.2303 1.69219 39.065 0.850259 39.065 0L38.654 0C38.654 1.71718 37.981 3.36402 36.7829 4.57825C35.5849 5.79247 33.9599 6.47462 32.2656 6.47462V6.89114C33.9599 6.89114 35.5849 7.57329 36.7829 8.78752C37.981 10.0017 38.654 11.6486 38.654 13.3658H39.065C39.065 12.5155 39.2303 11.6736 39.5513 10.888C39.8724 10.1025 40.3429 9.38874 40.9361 8.78752C41.5294 8.18629 42.2336 7.70937 43.0087 7.38399C43.7838 7.05861 44.6145 6.89114 45.4534 6.89114V6.47462Z" fill="white"/>
<path d="M54.3548 17.8986L57.3156 8.52431L60.269 17.8986H61.7038L65.5145 6.46387H63.9727L61.1263 15.1739L60.9536 15.9133H60.9281L60.7797 15.2158L58.0828 6.46387H56.5398L53.8441 15.2244L53.7116 15.9133H53.6788L53.5134 15.2417L50.6597 6.46387H49.1094L52.9273 17.8986H54.3548Z" fill="white"/>
<path d="M69.2804 9.08105C66.7817 9.08105 64.9092 11.1082 64.9092 13.6135C64.9092 16.1188 66.7902 18.1485 69.2804 18.1485C71.7961 18.1485 73.6686 16.1386 73.6686 13.6172C73.6686 11.0959 71.7888 9.08105 69.2804 9.08105ZM69.2974 16.7831C67.6219 16.7831 66.3269 15.4374 66.3269 13.6135C66.3269 11.7897 67.6219 10.4428 69.2974 10.4428C70.9729 10.4428 72.2497 11.7983 72.2497 13.6135C72.2497 15.4287 70.9632 16.7831 69.2974 16.7831Z" fill="white"/>
<path d="M76.3103 13.39C76.3103 11.5588 77.5883 10.4251 78.9853 10.4251C80.4444 10.4251 81.3357 11.2877 81.3357 13.2668V17.9015H82.7547V13.2483C82.7547 10.5076 81.5825 9.07812 79.3501 9.07812C77.9226 9.07812 76.7262 9.87544 76.2483 10.9771V9.32089H74.8926V17.9015H76.3103V13.39Z" fill="white"/>
<path d="M92.6137 17.9019V6.70996H91.1935V10.3009L91.2264 11.1328C90.9328 10.5203 90.4758 10.0034 89.9071 9.64071C89.3385 9.27805 88.6809 9.08413 88.0091 9.08095C85.5942 9.08095 83.8604 11.1081 83.8604 13.6134C83.8604 16.1187 85.6271 18.1496 87.9945 18.1496C88.6748 18.1556 89.3426 17.9638 89.9187 17.5968C90.4947 17.2299 90.9549 16.7032 91.2446 16.0793V17.9019H92.6137ZM88.2364 16.7928C86.5402 16.7928 85.2757 15.4065 85.2757 13.6073C85.2757 11.8081 86.5755 10.4279 88.2364 10.4279C89.8974 10.4279 91.2106 11.8303 91.2106 13.6134C91.2106 15.3966 89.8816 16.799 88.2328 16.799L88.2364 16.7928Z" fill="white"/>
<path d="M98.0032 18.1357C99.917 18.1357 101.419 16.891 101.894 15.3198H100.301C99.9365 16.286 99.0975 16.79 97.9679 16.79C96.583 16.79 95.3282 15.7142 95.1555 13.9889H102.134C102.149 13.6784 102.158 13.5515 102.158 13.4011C102.158 11.0979 100.426 9.07812 98.0007 9.07812C95.575 9.07812 93.7256 11.1078 93.7256 13.6131C93.7256 16.1184 95.5713 18.1357 98.0032 18.1357ZM96.189 11.0659C96.6922 10.6509 97.3242 10.4299 97.9728 10.4423C99.4075 10.4423 100.62 11.4935 100.702 12.7135H95.2187C95.3413 12.0659 95.6848 11.4826 96.189 11.0659Z" fill="white"/>
<path d="M107.183 9.32129C105.967 9.32129 105.039 10.0533 104.63 11.2388V9.32129H103.257V17.9019H104.69V13.8624C104.69 11.7933 105.785 10.5918 107.263 10.5918H108.006V9.32129H107.183Z" fill="white"/>
<path d="M57.1393 31.2348H57.1308L52.8654 21.709H51.6045V33.1437H53.0648V25.5698L56.2931 33.1437H57.9589L61.2126 25.5662V33.1437H62.673V21.709H61.395L57.1393 31.2348Z" fill="white"/>
<path d="M71.5219 26.4124C70.9528 25.1357 69.698 24.3359 68.1818 24.3359C65.8959 24.3359 64.123 26.3532 64.123 28.8598C64.123 31.3663 65.8886 33.396 68.1891 33.396C69.6907 33.396 70.9528 32.5974 71.5219 31.3281V33.1495H72.8801V24.5725H71.5219V26.4124ZM68.5028 32.0404C66.8868 32.0404 65.5384 30.7588 65.5384 28.8598C65.5384 27.0113 66.8759 25.6903 68.5162 25.6903C70.1564 25.6903 71.4781 27.0852 71.4781 28.8598C71.4733 30.6577 70.1516 32.0404 68.5028 32.0404Z" fill="white"/>
<path d="M81.4882 24.5692H79.7483L76.1358 29.1337V21.709H74.7168V33.1437H76.1358V30.732L77.7116 28.9575L80.3076 33.1437H81.9174L78.75 28.0074L81.4882 24.5692Z" fill="white"/>
<path d="M86.4404 24.3359C84.0086 24.3359 82.1592 26.3619 82.1592 28.8684C82.1592 31.375 84.0061 33.396 86.4404 33.396C88.3543 33.396 89.8547 32.1526 90.3313 30.5801H88.7421C88.3713 31.5475 87.5372 32.0404 86.4076 32.0404C85.0214 32.0404 83.7678 30.9646 83.5952 29.2418H90.5709C90.5879 28.93 90.5952 28.8043 90.5952 28.6515C90.5964 26.3545 88.8662 24.3359 86.4404 24.3359ZM83.6645 27.9738C83.7878 27.3262 84.1322 26.7433 84.6372 26.3274C85.1403 25.9123 85.7724 25.6918 86.421 25.705C87.8557 25.705 89.068 26.755 89.1495 27.9738H83.6645Z" fill="white"/>
<path d="M93.3821 26.4947V24.5723H92.0166V33.1492H93.4453V29.1121C93.4453 27.0431 94.5396 25.8416 96.017 25.8416H96.7599V24.5723H95.9428C94.7196 24.5723 93.7991 25.303 93.3821 26.4947Z" fill="white"/>
<path d="M101.068 28.1994C99.5021 27.9307 99.0474 27.6276 99.0474 26.8118C99.0474 26.1229 99.5666 25.5425 100.655 25.5425C101.777 25.5425 102.454 26.0884 102.494 26.898H103.889C103.889 25.402 102.603 24.3262 100.655 24.3262C98.6522 24.3262 97.6454 25.4353 97.6454 26.8401C97.6454 28.5654 99.023 29.1347 100.59 29.3701C101.91 29.5882 102.708 29.842 102.708 30.7983C102.708 31.661 102.049 32.2118 100.78 32.2118C99.3939 32.2118 98.6352 31.4552 98.6181 30.5223L97.249 30.5137C97.249 31.9764 98.4114 33.3887 100.763 33.3887C102.768 33.3887 104.157 32.4817 104.157 30.7232C104.152 28.8636 102.611 28.4434 101.068 28.1994Z" fill="white"/>
</g>
<defs>
<clipPath id="clip0_1_511">
<rect width="108" height="33.3922" fill="white"/>
</clipPath>
</defs>
</svg>
